<svg id="Layer_1" data-name="Layer 1" xmlns="http://www.w3.org/2000/svg" viewBox="0 0 120 120"><defs><style>.cls-1{fill:#fff;}</style></defs><title>icon</title><path class="cls-1" d="M2.94,82.52l9,9a.28.28,0,0,0,.11-.07l1.15-1.15a.28.28,0,0,0,.07-.11l-9-9A14.12,14.12,0,0,1,2.94,82.52Z"/><path class="cls-1" d="M57.38,47.32a1.34,1.34,0,0,0-.93.38l-.88.89a1.31,1.31,0,1,0,1.85,1.85l.89-.88a1.34,1.34,0,0,0,.38-.93A1.31,1.31,0,0,0,57.38,47.32Z"/><path class="cls-1" d="M54,89.4v2.34h2.34V87.06h2.34v4.68h7V87.06H68v4.68h2.34V89.4A8.19,8.19,0,0,0,54,89.4Z"/><circle class="cls-1" cx="62.2" cy="74.2" r="4.68"/><path class="cls-1" d="M50.37,40.31a1.3,1.3,0,0,0-.93.38l-.89.89a1.31,1.31,0,0,0,1.86,1.85l.88-.89a1.27,1.27,0,0,0,.39-.92A1.31,1.31,0,0,0,50.37,40.31Z"/><path class="cls-1" d="M53.87,43.81a1.27,1.27,0,0,0-.92.39l-.89.88a1.31,1.31,0,0,0,1.85,1.86l.89-.89a1.28,1.28,0,0,0,.38-.93A1.31,1.31,0,0,0,53.87,43.81Z"/><path class="cls-1" d="M60.67,6.56a56,56,0,1,0,56,56A56,56,0,0,0,60.67,6.56ZM50.51,67.19H48.17V64.85h2.34Zm25.71,0H73.88V64.85h2.34ZM98.43,94.07h-21V89.4a10.53,10.53,0,0,1,6.28-9.62A7,7,0,0,1,86.74,67.3V66a3.51,3.51,0,0,0-3.51-3.5H63.36V67.3a7,7,0,0,1,3.07,12.48,10.53,10.53,0,0,1,6.29,9.62v4.67h-21V89.4A10.52,10.52,0,0,1,58,79.78,7,7,0,0,1,61,67.3V62.52H41.16A3.51,3.51,0,0,0,37.65,66V67.3a7,7,0,0,1,3.07,12.48A10.53,10.53,0,0,1,47,89.4v4.67H26V89.4a10.53,10.53,0,0,1,6.28-9.62A7,7,0,0,1,35.31,67.3V66a5.85,5.85,0,0,1,5.85-5.84H61V56.51a3.89,3.89,0,0,1-1,.16,3.65,3.65,0,0,1-3.64-3.52,3.64,3.64,0,0,1-3.5-3.5,3.64,3.64,0,0,1-3.51-3.51,3.63,3.63,0,0,1-2.79-5.81A11.08,11.08,0,0,1,62.2,24.65a11,11,0,0,1,7.61-3,11.08,11.08,0,0,1,8.61,18.07l.24.24a3.64,3.64,0,0,1-2.45,6.22,3.64,3.64,0,0,1-3.51,3.51,3.64,3.64,0,0,1-3.5,3.5,3.63,3.63,0,0,1-5.84,2.77v4.26H83.23A5.85,5.85,0,0,1,89.08,66V67.3a7,7,0,0,1,3.07,12.48,10.53,10.53,0,0,1,6.28,9.62ZM78.56,67.19V64.85H80.9v2.34Zm-7-2.34v2.34H69.21V64.85Zm-18.7,2.34V64.85h2.33v2.34Zm-7-2.34v2.34H43.49V64.85Z"/><path class="cls-1" d="M87.91,81.22a8.19,8.19,0,0,0-8.18,8.18v2.34h2.34V87.06H84.4v4.68h7V87.06h2.33v4.68h2.34V89.4A8.19,8.19,0,0,0,87.91,81.22Z"/><circle class="cls-1" cx="87.91" cy="74.2" r="4.68"/><path class="cls-1" d="M64.53,52.14a3.61,3.61,0,0,1-.29,1.42l.39.39a1.3,1.3,0,0,0,.93.38A1.31,1.31,0,0,0,66.87,53a1.3,1.3,0,0,0-.38-.92l-2.78-2.78,1.65-1.66,2.78,2.78A1.31,1.31,0,1,0,70,48.59l-2.78-2.78,1.66-1.65,2.78,2.78A1.31,1.31,0,0,0,73.88,46a1.3,1.3,0,0,0-.38-.93L70.72,42.3l1.65-1.65,2.78,2.78A1.31,1.31,0,0,0,77,41.58l-7.75-7.75a9.28,9.28,0,0,1-3.36.63H65l-1.31,1.31a3.48,3.48,0,0,1-2.48,1H56.84a2.82,2.82,0,0,1-2-4.82l5.69-5.69A8.74,8.74,0,0,0,48.22,38.68,3.63,3.63,0,0,1,54,41.49,3.64,3.64,0,0,1,57.51,45,3.61,3.61,0,0,1,61,48.5,3.64,3.64,0,0,1,64.53,52.14Z"/><path class="cls-1" d="M62.2,52.14a1.31,1.31,0,0,0-1.31-1.31,1.28,1.28,0,0,0-.93.38l-.89.89a1.3,1.3,0,0,0-.38.92A1.31,1.31,0,0,0,60,54.33a1.3,1.3,0,0,0,.93-.38l.88-.89A1.27,1.27,0,0,0,62.2,52.14Z"/><path class="cls-1" d="M28.3,89.4v2.34h2.34V87.06H33v4.68h7V87.06h2.34v4.68h2.33V89.4a8.18,8.18,0,0,0-16.36,0Z"/><path class="cls-1" d="M56.35,34a.48.48,0,0,0,.49.48h4.39a1.15,1.15,0,0,0,.82-.34l2-2H65.9a6.77,6.77,0,0,0,4.82-2l1.65,1.65a9.07,9.07,0,0,1-1,.86L76.75,38a8.75,8.75,0,0,0-13.13-11.5l-7.13,7.13A.48.48,0,0,0,56.35,34Z"/><circle class="cls-1" cx="36.48" cy="74.2" r="4.68"/></svg>