<svg id="Layer_1" data-name="Layer 1" xmlns="http://www.w3.org/2000/svg" viewBox="0 0 120 120"><defs><style>.cls-1{fill:#fff;}</style></defs><title>icon</title><rect class="cls-1" x="35.89" y="48.35" width="12.61" height="6.3"/><rect class="cls-1" x="56.07" y="48.35" width="12.61" height="6.3"/><rect class="cls-1" x="76.24" y="48.35" width="12.61" height="6.3"/><path class="cls-1" d="M60,6.56a56,56,0,1,0,56,56A56,56,0,0,0,60,6.56ZM54.21,92.2a2.39,2.39,0,0,1-2.38,2.38H42.9a2.38,2.38,0,0,1-2.37-2.38V84.27A2.37,2.37,0,0,1,42.9,81.9h3.63v5h1.69v-5h3.61a2.38,2.38,0,0,1,2.38,2.37Zm1.6-19.62v-5h3.61A2.38,2.38,0,0,1,61.8,70V77.9a2.38,2.38,0,0,1-2.38,2.37H50.49a2.37,2.37,0,0,1-2.37-2.37V70a2.37,2.37,0,0,1,2.37-2.37h3.64v5ZM69.33,92.2A2.39,2.39,0,0,1,67,94.58H58a2.38,2.38,0,0,1-2.37-2.38V84.27A2.37,2.37,0,0,1,58,81.9h3.64v5h1.68v-5H67a2.38,2.38,0,0,1,2.38,2.37Zm2-19.62v-5h3.61A2.38,2.38,0,0,1,77.29,70V77.9a2.38,2.38,0,0,1-2.38,2.37H66a2.37,2.37,0,0,1-2.37-2.37V70A2.37,2.37,0,0,1,66,67.6h3.64v5ZM84.73,92.2a2.38,2.38,0,0,1-2.38,2.38H73.42a2.38,2.38,0,0,1-2.37-2.38V84.27a2.37,2.37,0,0,1,2.37-2.37h3.64v5h1.68v-5h3.61a2.37,2.37,0,0,1,2.38,2.37Zm16.73-45.39v5.28a2.29,2.29,0,0,1-2.2,2.56h-1.9c-.35,0-1,.26-1,.61V88.87C96.41,92,94.17,95,91,95H88.85V63.48h-53V95h-2c-3.15,0-5.61-3-5.61-6.13V55.26a.7.7,0,0,0-.73-.61H25.7a2.45,2.45,0,0,1-2.41-2.56V46.8a2.46,2.46,0,0,1,1.48-2.34L60.19,29.72a5,5,0,0,1,3.82,0l36,14.76A2.37,2.37,0,0,1,101.46,46.81Z"/></svg>