<svg id="Layer_1" data-name="Layer 1" xmlns="http://www.w3.org/2000/svg" viewBox="0 0 120 120"><defs><style>.cls-1{fill:#fff;}</style></defs><title>icon</title><path class="cls-1" d="M60.67,6.56a56,56,0,1,0,56,56A56,56,0,0,0,60.67,6.56Zm.6,17.86a18.5,18.5,0,0,1,20.3,18.41c0,14.11-11.75,16.76-17.27,30.32a1.32,1.32,0,0,1-2.45,0c-5-12.23-15-15.58-17-26.48C43,36,50.43,25.44,61.27,24.42Zm41.26,63.8H23.65a1.22,1.22,0,0,1-1.19-1.91L35,60.48a1.46,1.46,0,0,1,1.19-.75H47a1.51,1.51,0,0,1,1,.46c.73.85,1.48,1.67,2.22,2.49s1.42,1.56,2.12,2.37H39.55a1.46,1.46,0,0,0-1.2.74L30,82.9H96.15L87.83,65.79a1.46,1.46,0,0,0-1.2-.74H73.81c.7-.81,1.41-1.59,2.12-2.37s1.49-1.64,2.22-2.49a1.53,1.53,0,0,1,1-.46H90a1.47,1.47,0,0,1,1.2.75l12.57,25.83A1.23,1.23,0,0,1,102.53,88.22Z"/><circle class="cls-1" cx="63.07" cy="42.83" r="9.77" transform="translate(-6.05 10.66) rotate(-9.22)"/></svg>