<svg id="Layer_1" data-name="Layer 1" xmlns="http://www.w3.org/2000/svg" viewBox="0 0 120 120"><defs><style>.cls-1{fill:#fff;}</style></defs><title>icon</title><path class="cls-1" d="M59.67,6.56a56,56,0,1,0,56,56A56,56,0,0,0,59.67,6.56Zm33.84,64a6,6,0,0,1-6,6H83.15c-4.32,12-15.34,19.23-23.48,19.23S40.5,88.54,36.19,76.55H31.83a6,6,0,0,1-6-6V64A6,6,0,0,1,29,58.66C29,49.29,31.77,42,37.11,36.9S50,29.33,59.67,29.33s17.26,2.55,22.56,7.57,8.07,12.39,8.13,21.76A6,6,0,0,1,93.51,64Z"/><path class="cls-1" d="M59.67,32.94c-17.36,0-26.7,8.64-27.08,25H34.9A28.83,28.83,0,0,1,40.24,44.4C44.56,38.85,51.09,36,59.67,36S74.78,38.85,79.1,44.4a28.93,28.93,0,0,1,5.34,13.54h2.31C86.36,41.58,77,32.94,59.67,32.94Z"/><path class="cls-1" d="M67,56.53a8.83,8.83,0,0,1,1.91,3.64c-3.74-2.94-11.08-2.24-16.63-8.83-.32-.37-.59-.72-.83-1h0c-1-1.34-1.32-2.13-1.34-1.25-.16,7.57-5.54,13.48-11.5,14.31,0,.84-.07,1.68-.07,2.56a27.43,27.43,0,0,0,1.41,8.75c3.35,4,8.89,5.18,13.78,5.48a6.28,6.28,0,0,1,5.33-2.45c3.22,0,5.83,1.85,5.83,4.13S62.27,86,59.05,86c-2.48,0-4.59-1.1-5.44-2.64A28.56,28.56,0,0,1,43.08,81c4.71,7,12,10.63,16.59,10.63,7.17,0,21.13-9.06,21.13-25.67,0-1.55-.08-3-.19-4.41C77.94,59.06,73.1,57.21,67,56.53ZM50.88,69.36a3.48,3.48,0,1,1,3.47-3.48A3.48,3.48,0,0,1,50.88,69.36Zm17.58,0a3.48,3.48,0,1,1,3.47-3.48A3.48,3.48,0,0,1,68.46,69.36Z"/></svg>