<svg id="Layer_1" data-name="Layer 1" xmlns="http://www.w3.org/2000/svg" viewBox="0 0 120 120"><defs><style>.cls-1{fill:#fff;}</style></defs><title>icon</title><path class="cls-1" d="M69.37,49c0-3,4.6-2.95,4.6,0v8.79a14.47,14.47,0,0,1,3.66-.19V38.93H28.72v32.5H62.3a14.15,14.15,0,0,1,2.57-7.83A2.32,2.32,0,0,1,62,61.38V49c0-3,4.6-2.95,4.6,0V61.38a1.69,1.69,0,0,1,0,.23,14.34,14.34,0,0,1,2.81-2.15ZM39.45,64.76c0,2.68-4.15,2.67-4.15,0V53.55a2.08,2.08,0,0,1,4.15,0Zm6.68,0c0,2.68-4.15,2.67-4.15,0V53.55a2.08,2.08,0,0,1,4.15,0Zm6.68,0c0,2.68-4.15,2.67-4.15,0V53.55a2.08,2.08,0,0,1,4.15,0Zm6.69,0c0,2.68-4.16,2.67-4.16,0V53.55a2.08,2.08,0,0,1,4.16,0Z"/><path class="cls-1" d="M59.67,6.56a56,56,0,1,0,56,56A56,56,0,0,0,59.67,6.56Zm39.79,87L98.31,94.7a4.67,4.67,0,0,1-6.52.17L81.93,85a14.41,14.41,0,0,1-19-9H26.42a2.3,2.3,0,0,1-2.3-2.29V36.63a2.3,2.3,0,0,1,2.3-2.3H79.93a2.29,2.29,0,0,1,2.29,2.3V58.7a14.41,14.41,0,0,1,7.55,18.47L99.63,87A4.67,4.67,0,0,1,99.46,93.55Z"/><path class="cls-1" d="M84.06,65.7A9.66,9.66,0,1,0,79.64,81,9.74,9.74,0,0,0,84.06,65.7Z"/></svg>