<svg id="Layer_1" data-name="Layer 1" xmlns="http://www.w3.org/2000/svg" viewBox="0 0 120 120"><defs><style>.cls-1{fill:#fff;}</style></defs><title>icon</title><rect class="cls-1" x="41.83" y="57.13" width="2.16" height="8.62"/><path class="cls-1" d="M91.24,40.69H33a3.5,3.5,0,0,0-3.5,3.49V81.57a3.5,3.5,0,0,0,3.5,3.5H62.12a3.14,3.14,0,0,1,2.24.93l5.82,5.81a2.53,2.53,0,0,0,1.82.76,2.57,2.57,0,0,0,1.83-.76L79.64,86a3.16,3.16,0,0,1,2.24-.93h9.36a3.5,3.5,0,0,0,3.49-3.5V44.18A3.49,3.49,0,0,0,91.24,40.69ZM58.63,77.1a1.71,1.71,0,0,1-1,1.54,1.63,1.63,0,0,1-.71.16,1.69,1.69,0,0,1-1.1-.41L45.06,69.13H40.14a1.7,1.7,0,0,1-1.7-1.69v-12a1.7,1.7,0,0,1,1.7-1.69h4.92l10.77-9.26a1.69,1.69,0,0,1,1.81-.25,1.71,1.71,0,0,1,1,1.54Zm4.68-9.5a1.7,1.7,0,0,1-1.2-2.89,4.65,4.65,0,0,0,0-6.55,1.69,1.69,0,0,1,2.4-2.39,8,8,0,0,1,0,11.33A1.71,1.71,0,0,1,63.31,67.6Zm6.16,4.47a1.69,1.69,0,0,1-2.39-2.4,11.66,11.66,0,0,0,0-16.47,1.69,1.69,0,0,1,2.39-2.4A15,15,0,0,1,69.47,72.07ZM75,77.61a1.71,1.71,0,0,1-1.2.5,1.7,1.7,0,0,1-1.2-2.89,19.49,19.49,0,0,0,0-27.57A1.69,1.69,0,1,1,75,45.26a22.87,22.87,0,0,1,0,32.35Z"/><path class="cls-1" d="M61.18,6.56a56,56,0,1,0,56,56A56,56,0,0,0,61.18,6.56Zm39.9,75a9.85,9.85,0,0,1-9.84,9.85h-8L78.32,96.3a8.93,8.93,0,0,1-12.64,0L60.8,91.42H33a9.86,9.86,0,0,1-9.85-9.85V44.18A9.86,9.86,0,0,1,33,34.33H91.24a9.85,9.85,0,0,1,9.84,9.85Z"/><polygon class="cls-1" points="47.38 66.66 55.24 73.41 55.24 49.46 47.38 56.21 47.38 66.66"/></svg>